<svg xmlns="http://www.w3.org/2000/svg" version="1.1" xmlns:xlink="http://www.w3.org/1999/xlink" width="53" height="53"><svg width="53" height="53" viewBox="0 0 53 53" fill="none" xmlns="http://www.w3.org/2000/svg">
<path d="M26.5 0C32.9293 0 38.8232 2.29034 43.4121 6.09863C42.3326 7.95193 33.3178 35.1012 33.2998 35.1553L27.6299 16.8857C27.5815 16.7084 27.4989 16.5591 27.3838 16.4375C27.3515 16.3046 27.2945 16.1844 27.2051 16.0801C26.3418 15.0769 25.2912 14.319 24.0547 13.8057C22.9728 13.3362 21.8195 13.0714 20.5947 13.0127L20.0654 13C18.3855 13 16.8571 13.4208 15.4805 14.2607C14.1273 15.0774 13.0412 16.1851 12.2246 17.585L12.0762 17.8496C11.3586 19.1797 11 20.6436 11 22.2402V29.6953L11.0049 30.0127C11.0527 31.5917 11.459 33.0381 12.2246 34.3506L12.3809 34.6094C13.1779 35.8891 14.2117 36.9224 15.4805 37.71L15.7402 37.8584C16.9614 38.5283 18.2986 38.886 19.752 38.9307L20.0654 38.9355C21.3309 38.9355 22.5163 38.7301 23.6211 38.3193L24.0898 38.1309C25.3264 37.5942 26.3769 36.8235 27.2402 35.8203C27.38 35.6339 27.45 35.4471 27.4502 35.2607C27.4502 35.0042 27.3446 34.7705 27.1348 34.5605C26.8783 34.3041 26.6217 34.0356 26.3652 33.7559C26.1086 33.4759 25.8513 33.2068 25.5947 32.9502C25.4081 32.7637 25.2099 32.6709 25 32.6709C24.7901 32.6709 24.5919 32.7755 24.4053 32.9854L24.1914 33.21C23.1045 34.2968 21.7402 34.8408 20.0996 34.8408L19.7793 34.8291C19.1427 34.7854 18.5387 34.6109 17.9678 34.3047L17.6846 34.1406C16.9614 33.674 16.3778 33.0549 15.9346 32.2852C15.5468 31.5912 15.3288 30.8431 15.2803 30.042L15.2695 29.6953V22.2402C15.2696 21.4236 15.4399 20.6691 15.7793 19.9775L15.9346 19.6855C16.3778 18.8925 16.9616 18.2625 17.6846 17.7959C18.4311 17.3293 19.2364 17.0958 20.0996 17.0957L20.4248 17.1025C21.6614 17.1585 22.7323 17.539 23.6396 18.2412L30.8848 40.5107C31.0278 40.9596 31.323 41.2125 31.7695 41.2686L31.9697 41.2803H34.7002L34.8857 41.2676C35.0651 41.2414 35.2252 41.1753 35.3652 41.0703C35.5749 40.9305 35.7151 40.7437 35.7852 40.5107L43.3799 17.165C43.3958 17.1167 45.309 11.2985 45.9004 8.92773L45.9893 8.54492C50.3413 13.2664 53 19.5725 53 26.5C53 41.1355 41.1355 53 26.5 53C11.8645 53 0 41.1355 0 26.5C0 11.8645 11.8645 0 26.5 0Z" fill="#00A2FA"></path>
</svg><style>@media (prefers-color-scheme: light) { :root { filter: none; } }
@media (prefers-color-scheme: dark) { :root { filter: none; } }
</style></svg>