<svg width="100%" height="898" viewBox="0 0 1523 898" fill="none" xmlns="http://www.w3.org/2000/svg">
	<g clip-path="url(#clip)">
		<path d="M79.1357 62.9853C144.526 55.3442 165.528 47.2817 210.856 12.4147C278.165 -39.3447 378.578 -39.5792 407.292 59.4278C429.37 135.575 408.082 230.051 359.083 273.367C276.573 346.31 123.869 359.353 29.0826 303.078C-52.6341 254.571 -78.8931 161.249 -27.94 100.432C-10.6586 79.804 16.505 70.302 79.1357 62.9853Z" fill="#B177C6"/>
		<path d="M184.102 640.689C194.498 611.225 227.054 598.249 254.35 612.286C299.012 635.254 326.435 672.819 340.625 632.6C355.847 589.457 313.799 532.684 243.806 497.931C173.812 463.177 69.9621 477.416 35.8048 574.225C6.1029 658.407 27.1742 760.944 125 834.654C223.071 908.551 276.921 868.66 287.664 838.212C296.078 814.365 303.592 771.078 245.764 737.066C187.935 703.055 173.706 670.153 184.102 640.689Z" fill="#5489EC"/>
		<path d="M1221.17 215.322C1191.57 155.4 1235.34 20.2229 1377.46 -28.7909C1460.16 -57.311 1534.71 -45.1979 1559.77 27.4657C1587.97 109.231 1472.64 218.897 1398.72 254.588C1323.47 290.922 1254.18 282.185 1221.17 215.322Z" fill="#D59DB8"/>
		<path d="M-14.7808 680.496C62.4355 673.768 69.4563 753.68 146.673 746.953C223.889 740.226 216.868 660.314 294.084 653.587C371.3 646.86 378.321 726.771 455.356 720.06C532.575 713.333 525.554 633.421 602.587 626.71C679.805 619.983 686.826 699.894 763.859 693.183C841.077 686.456 834.056 606.544 911.268 599.817C988.486 593.09 995.507 673.002 1072.72 666.274C1149.94 659.547 1142.92 579.636 1220.13 572.909C1297.35 566.181 1304.37 646.093 1381.59 639.366C1458.8 632.639 1451.78 552.727 1529 546" stroke="#2F445D" stroke-width="18" stroke-miterlimit="10" stroke-linecap="round"/>
	</g>
	<defs>
		<clipPath id="clip">
			<rect width="100%" height="898" fill="none"/>
		</clipPath>
	</defs>
</svg>
