<svg width="1523" height="898" viewBox="0 0 1523 898" fill="none" xmlns="http://www.w3.org/2000/svg">
	<g>
			<rect width="1523" height="898" fill="#8D958A"/>
			<path d="M80.18 71.9245L80.1803 71.9244C113.001 68.0892 135.543 64.0677 155.745 56.3118C176.051 48.5159 193.449 37.159 216.344 19.5483C248.47 -5.15617 287.969 -17.1117 322.146 -11.7259C355.639 -6.44794 385.216 15.6195 398.648 61.9346C409.219 98.3943 409.452 139.496 401.062 176.731C392.649 214.064 375.789 246.586 353.122 266.624L353.122 266.624C313.638 301.53 256.806 322.496 197.892 327.714C138.983 332.932 79.0962 322.304 33.6772 295.339L33.6766 295.339C-45.0205 248.624 -67.2348 161.348 -21.0412 106.211L-27.5402 100.767L-21.0411 106.211C-6.28337 88.5961 17.4052 79.258 80.18 71.9245Z" stroke="#E0C974" stroke-width="18"/>
			<path d="M116.54 670.463L111.124 677.651L116.54 670.463C21.8243 599.096 2.02938 500.669 30.4157 420.216C46.4734 374.705 78.6409 348.936 114.999 338.381C151.669 327.735 192.812 332.545 225.927 348.988C259.915 365.864 286.679 387.886 303.01 410.4C319.444 433.056 324.504 454.91 318.261 472.602C315.018 481.795 311.969 483.659 310.686 484.091C309.084 484.631 305.838 484.533 299.121 481.114C293.291 478.146 286.662 473.663 278.589 468.203C277.689 467.594 276.771 466.974 275.835 466.342C266.736 460.202 256.268 453.285 244.589 447.279C212.372 430.711 173.923 446.158 161.738 480.691C155.641 497.971 156.908 516.321 167.711 534.725C178.285 552.738 197.748 570.425 227.325 587.82C254.517 603.813 265.289 621.267 268.923 636.532C272.641 652.147 269.26 666.991 265.301 678.213C260.996 690.413 247.485 705.693 223.714 709.683C199.961 713.669 164.445 706.56 116.54 670.463Z" stroke="#B6A1D9" stroke-width="18"/>
			<path d="M1229.23 211.337C1216.18 184.906 1218.64 139.332 1242.88 93.3738C1266.86 47.9172 1311.57 3.45376 1380.4 -20.2827C1420.77 -34.2057 1458.15 -37.833 1487.91 -29.9093C1517.17 -22.1214 1539.72 -3.05526 1551.26 30.3999C1563.71 66.4957 1544.8 110.89 1510.58 152.595C1476.81 193.752 1430.51 229.243 1394.81 246.483C1358.27 264.124 1324.16 270.33 1295.82 264.82C1267.89 259.388 1244.58 242.405 1229.23 211.337L1221.17 215.322L1229.23 211.337Z" stroke="#D59DB8" stroke-width="18"/>
			<path d="M0 759.342C76.8517 749.272 87.3327 828.803 164.184 818.733C241.036 808.662 230.555 729.13 307.407 719.06C384.258 708.989 394.739 788.521 471.411 778.474C548.265 768.403 537.784 688.871 614.453 678.824C691.307 668.753 701.788 748.285 778.457 738.238C855.31 728.167 844.829 648.636 921.677 638.565C998.53 628.495 1009.01 708.026 1085.86 697.955C1162.71 687.885 1152.23 608.354 1229.08 598.283C1305.94 588.212 1316.42 667.744 1393.27 657.673C1470.12 647.603 1459.64 568.071 1536.49 558" stroke="#A9BDA0" stroke-width="18" stroke-miterlimit="10" stroke-linecap="round"/>
	</g>
</svg>
